<?xml version="1.0" encoding="utf-8"?>
<!-- Generator: Adobe Illustrator 20.0.0, SVG Export Plug-In . SVG Version: 6.00 Build 0)  -->
<svg version="1.1" id="Layer_1" xmlns="http://www.w3.org/2000/svg" xmlns:xlink="http://www.w3.org/1999/xlink" x="0px" y="0px"
	 viewBox="0 0 512 512" style="enable-background:new 0 0 512 512;" xml:space="preserve">
<style type="text/css">
	.st0{fill:#FFFFFF;stroke:#000000;stroke-width:10;stroke-miterlimit:10;}
	.st1{fill:none;stroke:#000000;stroke-width:10;stroke-miterlimit:10;}
</style>
<path class="st0" d="M118,256V75.7c0-11.7,9.5-21.2,21.2-21.2h233.5c11.7,0,21.2,9.5,21.2,21.2V256c0,11.7-9.5,21.2-21.2,21.2H139.2
	C127.5,277.2,118,267.7,118,256z"/>
<path class="st0" d="M139.2,43.8h155.4c8.8,7.8,14.4,19.1,14.4,31.8c0-12.7,5.6-24.1,14.4-31.8h49.3c11.7,0,21.2,9.5,21.2,21.2v53
	h-42.5H245.4l0,0c-23.4,0-42.5-19-42.5-42.4l0,0c0,23.4-19,42.4-42.5,42.4H118V65C118,53.3,127.5,43.8,139.2,43.8z"/>
<path class="st0" d="M86.2,12h180.4c23.4,0,42.5,19,42.5,42.4l0,0h42.5V12h74.3c23.4,0,42.5,19,42.5,42.4l0,0
	c0,23.4-19,42.4-42.5,42.4H245.4V54.4h-42.5c0,23.4-19,42.4-42.5,42.4H86.2c-23.4,0-42.5-19-42.5-42.4l0,0C43.7,31,62.7,12,86.2,12z
	"/>
<path class="st0" d="M245.4,12h21.2c23.4,0,42.5,19,42.5,42.4c0-23.4,19-42.4,42.5-42.4l0,0h74.3c8.8,0,17,2.7,23.7,7.2
	c1.1,0.8,2.2,1.6,3.3,2.4c4.2,3.5,7.7,7.7,10.3,12.5c3.3,6,5.1,12.9,5.1,20.2l0,0l0,0c0,5.9-1.2,11.4-3.3,16.5
	c-1.1,2.5-2.4,5-3.9,7.2c-0.8,1.1-1.6,2.2-2.4,3.3c-3.9,4.7-8.8,8.6-14.4,11.3c-1.2,0.6-2.5,1.1-3.8,1.6c-4.6,1.7-9.5,2.6-14.6,2.6
	l0,0h-74.3H245.4c-23.4,0-42.5-19-42.5-42.4l0,0C202.9,31,221.9,12,245.4,12z"/>
<path class="st1" d="M469.3,401.9l-24.6,11.5c-23.9,11.1-51.8,3-66.2-18.1L156,499c-5.3,2.5-11.6,0.2-14.1-5.1l-0.4-0.9
	c-2.5-5.3-0.2-11.6,5.1-14.1l222.5-103.7c-6.9-24.6,4.8-51.2,28.7-62.4l24.6-11.5c26.6-12.4,58.1-0.9,70.5,25.7l2.1,4.5
	C507.4,358,495.9,389.6,469.3,401.9z"/>
<path class="st1" d="M459.1,382.2l-22.8,10.6c-15.9,7.4-34.9,0.5-42.3-15.4l-1.2-2.7c-7.4-15.9-0.5-34.9,15.4-42.3l22.8-10.6
	c15.9-7.4,34.9-0.5,42.3,15.4l1.2,2.7C481.9,355.9,475,374.8,459.1,382.2z"/>
<path class="st0" d="M384.5,492.6l-0.4,0.9c-2.5,5.3-8.8,7.6-14.1,5.1L147.4,394.9C133,416,105.1,424.2,81.2,413l-63.1-29.4
	c-5.3-2.5-7.6-8.8-5.1-14.1l38-81.4c2.5-5.3,8.8-7.6,14.1-5.1l63.1,29.4c23.9,11.1,35.6,37.8,28.7,62.4l222.5,103.7
	C384.7,481,387,487.3,384.5,492.6z"/>
<path class="st0" d="M115.3,387.9l-0.4,0.9c-2.5,5.3-8.8,7.6-14.1,5.1L49.5,370c-5.3-2.5-7.6-8.8-5.1-14.1l0.4-0.9
	c2.5-5.3,8.8-7.6,14.1-5.1l51.2,23.9C115.5,376.3,117.8,382.6,115.3,387.9z M125.8,339.7l-51.2-23.9c-5.3-2.5-11.6-0.2-14.1,5.1
	l-0.4,0.9c-2.5,5.3-0.2,11.6,5.1,14.1l51.2,23.9c5.3,2.5,11.6,0.2,14.1-5.1l0.4-0.9C133.4,348.5,131.1,342.1,125.8,339.7z"/>
</svg>
