<?xml version="1.0" encoding="utf-8"?>
<!-- Generator: Adobe Illustrator 20.0.0, SVG Export Plug-In . SVG Version: 6.00 Build 0)  -->
<svg version="1.1" id="Layer_1" xmlns="http://www.w3.org/2000/svg" xmlns:xlink="http://www.w3.org/1999/xlink" x="0px" y="0px"
	 viewBox="0 0 100 100" style="enable-background:new 0 0 100 100;" xml:space="preserve">
<style type="text/css">
	.st0{fill:#D19B3F;}
	.st1{fill:#96712C;}
	.st2{fill:#323030;}
	.st3{fill:#E9B84C;}
	.st4{fill:#92393C;}
	.st5{fill:#DB6D53;}
	.st6{fill:#9EA3AA;}
	.st7{fill:#C5CAD1;}
	.st8{fill:#EFF4F4;}
	.st9{fill:#CEB896;}
</style>
<path class="st0" d="M77.4,66.4L77.4,66.4c0,0.2-0.1,0.4-0.2,0.5l-6,8.5H32.6v-10h43.9C77,65.4,77.4,65.9,77.4,66.4z"/>
<path class="st1" d="M73.8,71.7l-2.7,3.7H32.6v-3.7H73.8z"/>
<path class="st2" d="M78.6,76.4L78.6,76.4c0,1.2-1,2.2-2.2,2.2H23.6c-1.2,0-2.2-1-2.2-2.2l0,0c0-1.2,1-2.2,2.2-2.2h52.8
	C77.6,74.1,78.6,75.1,78.6,76.4z"/>
<path class="st0" d="M36,27.2c0.9,1.5,0.6,3.5-0.6,4.7l0,0c-1.5,1.5-4,1.5-5.5,0l0,0c-1.3-1.3-1.5-3.2-0.6-4.7l3.4-5.8L36,27.2z"/>
<path class="st3" d="M35.3,31.9c-1.5,1.5-4,1.5-5.5,0c-0.7-0.7-1.1-1.6-1.1-2.5c1.5,1.1,3.7,1,5.1-0.4l0,0c1-1,1.4-2.6,1-3.9
	l1.2,2.1C36.8,28.7,36.6,30.7,35.3,31.9z"/>
<path class="st4" d="M40,36.2v38.6c0,0.3-0.3,0.6-0.6,0.6H25.7c-0.3,0-0.6-0.3-0.6-0.6V36.2c0-0.3,0.3-0.6,0.6-0.6H32v-0.6
	c0-0.3,0.3-0.6,0.6-0.6c0.3,0,0.6,0.3,0.6,0.6v0.6h6.2C39.8,35.6,40,35.8,40,36.2z"/>
<path class="st5" d="M33.8,35.6v5c0,0.7-0.6,1.2-1.2,1.2c-0.7,0-1.2-0.6-1.2-1.2v6.2c0,0.7-0.6,1.2-1.2,1.2c-0.7,0-1.2-0.6-1.2-1.2
	V35.6h2.5C31.3,35.6,33.8,35.6,33.8,35.6z"/>
<path class="st6" d="M48.8,62.5v10.4h2.6c0.7,0,1.2,0.6,1.2,1.2c0,0.7-0.6,1.2-1.2,1.2h-7.6c-0.7,0-1.2-0.6-1.2-1.2
	c0-0.7,0.6-1.2,1.2-1.2h2.6V62.5c-5.6-0.7-9.4-5.6-8.5-11.5l1.3-9.4H56l1.3,9.4C58.2,56.8,54.4,61.8,48.8,62.5z"/>
<path class="st7" d="M54.5,41.6l1,7.1c0.7,4.8-2.7,8.8-7.5,8.8c-4.8-0.1-8.1-4-7.5-8.8l1-7.1L54.5,41.6L54.5,41.6z"/>
<path class="st8" d="M49.1,54.5c0,0.7-0.6,1.2-1.2,1.2c0,0,0,0,0,0c-3.2-0.1-5.7-2.5-5.8-5.7c0-0.7,0.5-1.3,1.2-1.3
	c0.7,0,1.3,0.5,1.3,1.2c0.1,1.9,1.5,3.2,3.4,3.3C48.6,53.3,49.1,53.8,49.1,54.5z M43.8,46.1c0.1,0,0.1,0,0.2,0
	c0.6,0,1.1-0.4,1.2-1.1l0-0.1c0.1-0.7-0.4-1.3-1.1-1.4c-0.7-0.1-1.3,0.4-1.4,1.1l0,0.1C42.6,45.4,43.1,46,43.8,46.1z"/>
<path class="st9" d="M77.1,51.2c0,2.6-2.1,4.7-4.7,4.7h-6.4c-1.2,0-2.2,1-2.2,2.2v3.5c0,0.7-0.6,1.2-1.2,1.2s-1.2-0.6-1.2-1.2v-3.5
	c0-2.6,2.1-4.7,4.7-4.7h6.4c1.2,0,2.2-1,2.2-2.2c0-1.2-1-2.2-2.2-2.2h-5.5c-2.6,0-4.7-2.1-4.7-4.7s2.1-4.7,4.7-4.7h3.7
	c1.2,0,2.2-1,2.2-2.2c0-0.7,0.6-1.2,1.2-1.2c0.7,0,1.2,0.6,1.2,1.2c0,2.6-2.1,4.7-4.7,4.7h-3.7c-1.2,0-2.2,1-2.2,2.2
	c0,1.2,1,2.2,2.2,2.2h5.5C74.9,46.5,77.1,48.6,77.1,51.2z"/>
</svg>
