<?xml version="1.0" encoding="utf-8"?>
<!-- Generator: Adobe Illustrator 20.0.0, SVG Export Plug-In . SVG Version: 6.00 Build 0)  -->
<svg version="1.1" id="Capa_1" xmlns="http://www.w3.org/2000/svg" xmlns:xlink="http://www.w3.org/1999/xlink" x="0px" y="0px"
	 viewBox="0 0 100 100" style="enable-background:new 0 0 100 100;" xml:space="preserve">
<style type="text/css">
	.st0{fill:#436B1C;}
	.st1{fill:#88C057;}
	.st2{fill:#EEAF4B;}
	.st3{fill:#ED3F32;}
	.st4{fill:#A46F3E;}
	.st5{fill:#DAE7EF;}
	.st6{fill:#FFFFFF;}
	.st7{fill:#FBD490;}
	.st8{fill:#E0B877;}
</style>
<g>
	<path class="st0" d="M33.8,42.5c-0.3,0-0.7-0.2-0.9-0.5c-0.6-1-1.8-2.1-3.1-2.1c-0.6,0-1-0.4-1-1c0-0.6,0.4-1,1-1
		c2.1-0.1,3.9,1.5,4.8,3.1c0.3,0.5,0.1,1.1-0.3,1.4C34.2,42.5,34,42.5,33.8,42.5z"/>
	<g>
		<path class="st1" d="M54.3,29.2c-0.1-1.9-1.8-3.5-3.7-3.5c0,0,0,0,0,0c0-0.3,0-0.6-0.1-0.9c-0.3-0.9-1.1-1.6-2-1.7
			c-0.8-0.1-1.5,0.2-2,0.7C46,23.3,45.3,23,44.7,23c-1.5,0-2.7,1.2-2.7,2.7c0,0,0,0,0,0c-1.8,0.1-3.2,1.6-3.2,3.5
			c0,0.3,0,0.6,0.1,0.8c-2.1,0.1-3.8,1.8-3.8,4c0,0.7,0.2,1.4,0.5,2c-0.7,0.5-1.1,1.4-1.1,2.3c0,0.8,0.4,1.6,0.9,2.1
			c2.4-2,4.9,4.6,7.9,9.9c1,1.7,11.7-0.1,12.6,1c1-0.9,1.6-16.1,1.6-17.4C57.5,31.7,56.2,29.9,54.3,29.2z"/>
	</g>
	<path class="st2" d="M55.6,49.1l0.7-0.4c1.3-0.8,3-0.8,4.3,0l0.7,0.4c1.3,0.8,3,0.8,4.3,0l2-0.9c0.3-0.8,0.5-1.4,0.6-1.7
		c1.9-6,3.1-12.4,3.3-18.8c0.1-2.6-2-6.5-5.6-4.7c-3.4,1.8-5.9,8.6-7.7,11.8c-2.5,4.6-4.4,9.6-5.8,14.7
		C53.5,49.9,54.7,49.7,55.6,49.1z"/>
	<path class="st3" d="M29.6,48.1l1.3,0.8c1.5,0.9,3.5,0.9,5,0l0.3-0.2c1.3-0.8,3-0.8,4.3,0l0.7,0.4c0.8,0.5,1.7,0.6,2.5,0.6
		c0.6-2.1,0.4-4.7-0.6-6.4c-3.3-5.9-6.1-4.7-8.8-2.1c-0.5,0.5-1.1,0.8-1.8,1c-2.9,0.8-5.1,2.2-3.9,5.9C29.1,48,29.4,47.9,29.6,48.1z
		"/>
	<path class="st4" d="M58.2,46.9c-0.1,0-0.2,0-0.3-0.1c-0.5-0.2-0.8-0.7-0.6-1.3c0.7-2,2.8-3,4.8-2.4c0.9,0.3,1.9-0.2,2.2-1.1
		c0.2-0.5,0.7-0.8,1.3-0.6c0.5,0.2,0.8,0.7,0.6,1.3c-0.7,2-2.8,3-4.8,2.4c-0.9-0.3-1.9,0.2-2.2,1.1C59,46.7,58.6,46.9,58.2,46.9z"/>
	<path class="st4" d="M60.5,40c-0.1,0-0.2,0-0.3-0.1c-0.5-0.2-0.8-0.7-0.6-1.3c0.3-1,1-1.7,1.9-2.2c0.9-0.4,1.9-0.5,2.9-0.2
		c0.9,0.3,1.9-0.2,2.2-1.1c0.2-0.5,0.7-0.8,1.3-0.6c0.5,0.2,0.8,0.7,0.6,1.3c-0.7,2-2.8,3-4.8,2.4c-0.4-0.2-0.9-0.1-1.3,0.1
		s-0.7,0.6-0.9,1C61.4,39.7,61,40,60.5,40z"/>
	<path class="st4" d="M62.9,33c-0.1,0-0.2,0-0.3-0.1c-0.5-0.2-0.8-0.7-0.6-1.3c0.6-1.7,2.5-2.6,4.2-2.1c0.3,0.1,0.7,0.1,1-0.1
		c0.3-0.2,0.5-0.4,0.7-0.7c0.2-0.5,0.7-0.8,1.3-0.6c0.5,0.2,0.8,0.7,0.6,1.3c-0.3,0.8-0.9,1.5-1.7,1.9c-0.8,0.4-1.7,0.4-2.5,0.2
		c-0.7-0.2-1.4,0.1-1.6,0.8C63.7,32.7,63.3,33,62.9,33z"/>
	<g>
		<path class="st5" d="M46,36.7c-0.9,1.3-2.4,2.7-1.9,5.4l1.5,7.1h0l0.7-0.4c1.3-0.8,3-0.8,4.3,0l0.7,0.4c0.6,0.3,1.1,0.5,1.1,0.5
			c1-3.8,2.4-7.6,4.1-11.2c-0.8-1.9-2.4-2.6-3.6-3.2c0,0,0,0,0,0c-0.8-0.4-0.8-1.5-0.2-2.1c0.2-0.3,0.3-0.6,0.3-1l-0.1-0.6
			c-0.1-0.6-0.7-1-1.3-0.9l-6.1,1.3c-0.6,0.1-1,0.7-0.9,1.3l0.1,0.6c0.1,0.4,0.3,0.7,0.7,0.8c0.7,0.3,1.2,1.1,0.8,1.9
			C46.1,36.6,46,36.6,46,36.7z"/>
	</g>
	<path class="st6" d="M52.3,33.5L45.5,35c-0.8,0.2-1.5-0.3-1.7-1.1l-0.1-0.5c-0.2-0.8,0.3-1.5,1.1-1.7l6.9-1.5
		c0.8-0.2,1.5,0.3,1.7,1.1l0.1,0.5C53.6,32.6,53.1,33.3,52.3,33.5z"/>
	<path class="st7" d="M69.4,47.9l-1.7,25c-0.1,2.5-2.2,4.5-4.7,4.5H34.9c-2.5,0-4.6-2-4.7-4.5l-1.7-24.2c0-0.6,0.6-0.9,1.1-0.6
		l1.3,0.8c1.5,0.9,3.5,0.9,5,0l0.3-0.2c1.3-0.8,3-0.8,4.3,0l0.7,0.4c1.3,0.8,3,0.8,4.3,0l0.7-0.4c1.3-0.8,3-0.8,4.3,0l0.7,0.4
		c1.3,0.8,3,0.8,4.3,0l0.7-0.4c1.3-0.8,3-0.8,4.3,0l0.7,0.4c1.3,0.8,3,0.8,4.3,0l3.4-1.5C69.2,47.5,69.4,47.7,69.4,47.9z"/>
	<path class="st8" d="M40.5,64.6h-7c-0.6,0-1-0.4-1-1c0-0.6,0.4-1,1-1h7c0.6,0,1,0.4,1,1C41.5,64.1,41.1,64.6,40.5,64.6z"/>
	<path class="st8" d="M42.5,68.6h-9c-0.6,0-1-0.4-1-1s0.4-1,1-1h9c0.6,0,1,0.4,1,1S43.1,68.6,42.5,68.6z"/>
	<path class="st8" d="M44.5,72.6h-11c-0.6,0-1-0.4-1-1s0.4-1,1-1h11c0.6,0,1,0.4,1,1S45.1,72.6,44.5,72.6z"/>
	<path class="st8" d="M50.5,72.6h-2c-0.6,0-1-0.4-1-1s0.4-1,1-1h2c0.6,0,1,0.4,1,1S51.1,72.6,50.5,72.6z"/>
</g>
</svg>
