<?xml version="1.0" encoding="utf-8"?>
<!-- Generator: Adobe Illustrator 20.0.0, SVG Export Plug-In . SVG Version: 6.00 Build 0)  -->
<svg version="1.1" id="Capa_1" xmlns="http://www.w3.org/2000/svg" xmlns:xlink="http://www.w3.org/1999/xlink" x="0px" y="0px"
	 viewBox="0 0 100 100" style="enable-background:new 0 0 100 100;" xml:space="preserve">
<style type="text/css">
	.st0{fill:#E6E6E6;}
	.st1{fill:#A5A5A5;}
	.st2{fill:#D2D5D7;}
	.st3{fill:#38454F;}
	.st4{fill:#FFFFFF;}
	.st5{fill:#DAE7EF;}
	.st6{fill:#BBD7EA;}
	.st7{fill:#ED3F32;}
</style>
<g>
	<path class="st0" d="M72,22c0,7.5-9.8,15-22,15s-22-7.5-22-15H72z"/>
	<path class="st1" d="M50,41c2.2,0,4.2,0.5,6,1.4v-6c-1.9,0.4-3.9,0.6-6,0.6s-4.1-0.2-6-0.6v6C45.8,41.5,47.8,41,50,41z"/>
	<path class="st2" d="M34,78c-0.6,0-1-0.4-1-1s0.4-1,1-1c1.7,0,3-1.3,3-3c0-0.6,0.4-1,1-1s1,0.4,1,1C39,75.8,36.8,78,34,78z"/>
	<path class="st2" d="M67,78c-2.8,0-5-2.2-5-5c0-0.6,0.4-1,1-1s1,0.4,1,1c0,1.7,1.3,3,3,3c0.6,0,1,0.4,1,1S67.6,78,67,78z"/>
	<path class="st3" d="M62,62c-2.4,4.1-6.9,6.9-12.1,6.9s-9.6-2.8-12.1-6.9h-5.1c-2,0-3.4,2-2.7,3.8l2.6,7.2h35.4l2.6-7.2
		c0.7-1.9-0.7-3.8-2.7-3.8H62z"/>
	<path class="st4" d="M49,33c-2.7,0-5.3-0.4-7.5-1.3c-0.5-0.2-0.8-0.8-0.6-1.3s0.8-0.8,1.3-0.6c2,0.7,4.3,1.1,6.8,1.1c0,0,0,0,0,0
		l0,0c0.6,0,1,0.4,1,1C50,32.6,49.6,33,49,33C49,33,49,33,49,33z"/>
	<path class="st4" d="M38.4,29.9c-0.2,0-0.5-0.1-0.7-0.3c-1.1-1-1.7-2.3-1.8-3.6c0-0.6,0.4-1,1-1c0.5,0,1,0.4,1,1
		c0,0.8,0.4,1.5,1.1,2.1c0.4,0.4,0.5,1,0.1,1.4C39,29.7,38.7,29.9,38.4,29.9z"/>
	<circle class="st0" cx="50" cy="55" r="14"/>
	<g>
		<circle class="st5" cx="50" cy="55" r="14"/>
		<path class="st6" d="M50,69.4c-8,0-14.5-6.5-14.5-14.5S42,40.5,50,40.5S64.4,47,64.4,55S57.9,69.4,50,69.4z M50,41.5
			c-7.4,0-13.5,6-13.5,13.5s6,13.5,13.5,13.5s13.5-6,13.5-13.5S57.4,41.5,50,41.5z"/>
	</g>
	<path class="st7" d="M52,56.4L52,56.4c-1.7,0-3-1.4-3-3l0,0c0-1.3,5.6-4.2,7.8-5.3c0.3-0.2,0.7,0.2,0.5,0.5
		C56.2,50.8,53.4,56.4,52,56.4z"/>
	<path class="st4" d="M50,46h-1c-0.6,0-1-0.4-1-1s0.4-1,1-1h1c0.6,0,1,0.4,1,1S50.6,46,50,46z"/>
	<path class="st4" d="M50,65h-1c-0.6,0-1-0.4-1-1s0.4-1,1-1h1c0.6,0,1,0.4,1,1S50.6,65,50,65z"/>
	<path class="st4" d="M41,55h-1c-0.6,0-1-0.4-1-1s0.4-1,1-1h1c0.6,0,1,0.4,1,1S41.6,55,41,55z"/>
	<path class="st4" d="M60,55h-1c-0.6,0-1-0.4-1-1s0.4-1,1-1h1c0.6,0,1,0.4,1,1S60.6,55,60,55z"/>
</g>
</svg>
